<?xml version="1.0" encoding="UTF-8"?><svg id="Capa_1" xmlns="http://www.w3.org/2000/svg" viewBox="0 0 18 18"><defs><style>.cls-1{fill:#111a67;}</style></defs><path class="cls-1" d="M17,0H1C.45,0,0,.45,0,1V17c0,.55,.45,1,1,1H17c.55,0,1-.45,1-1V1c0-.55-.45-1-1-1ZM5.34,15.34H2.67V6.75h2.67V15.34Zm-1.34-9.76c-.85,0-1.55-.69-1.55-1.55,0-.85,.69-1.55,1.55-1.55h0c.85,0,1.55,.69,1.55,1.55,0,.85-.69,1.55-1.55,1.55ZM15.34,15.34h-2.67v-4.18c0-1-.02-2.28-1.39-2.28s-1.6,1.09-1.6,2.21v4.25h-2.67V6.75h2.56v1.17h.04c.35-.68,1.23-1.39,2.52-1.39,2.7,0,3.2,1.78,3.2,4.09v4.71h0Z"/></svg>